# xmcd CD database file
#
# Track frame offsets:
#	150
#	10285
#	22007
#	38280
#	49075
#	58732
#	69447
#	80385
#	93420
#	105347
#	120860
#	130550
#	140312
#	150847
#	160955
#	170967
#	181412
#	190017
#	203710
#	215710
#	228280
#	242200
#	251790
#	263957
#	274815
#	286022
#	295427
#	307402
#
# Disc length: 4225 seconds
#
# Revision: 2
# Processed by: cddbd v1.4b41PL1 Copyright (c) Steve Scherf et al.
# Submitted via: Feurio! 1.50.2ß - http://www.feurio.com
#
DISCID=8b107f1c
DTITLE=Alfred Jack - Sanfte Töne
DYEAR=1900
DGENRE=
TTITLE0=Für Anna
TTITLE1=Ariane
TTITLE2=Medley
TTITLE3=Cote D´Azur
TTITLE4=Sympathie
TTITLE5=Zwei Karat
TTITLE6=Silberne Wolken
TTITLE7=Die Nacht Singt Heut Ihr Zärtliches Lied
TTITLE8=Rosen Im Oktober
TTITLE9=Medley
TTITLE10=Capricciosa
TTITLE11=Flirt Im Hotel
TTITLE12=Mondnacht Am Dom
TTITLE13=Amitié
TTITLE14=Gabriella
TTITLE15=Nur Eine Stunde
TTITLE16=Fräulein, Pardon
TTITLE17=Medley
TTITLE18=Es War Einmal Eine Liebe
TTITLE19=Patience
TTITLE20=Medley
TTITLE21=Was Du Mir Erzählt Hast Von Liebe Und Treu
TTITLE22=Medley
TTITLE23=Eine Freundin, So Goldig Wie Du
TTITLE24=Die Kleine Stadt Will Schlafen Geh`n
TTITLE25=Unter Einem Regenschirm Am Abend
TTITLE26=Medley
TTITLE27=Casanova-Film
EXTD=
EXTT0=
EXTT1=
EXTT2=
EXTT3=
EXTT4=
EXTT5=
EXTT6=
EXTT7=
EXTT8=
EXTT9=
EXTT10=
EXTT11=
EXTT12=
EXTT13=
EXTT14=
EXTT15=
EXTT16=
EXTT17=
EXTT18=
EXTT19=
EXTT20=
EXTT21=
EXTT22=
EXTT23=
EXTT24=
EXTT25=
EXTT26=
EXTT27=
PLAYORDER=
